<?xml version="1.0" standalone="no"?>
<!DOCTYPE svg PUBLIC "-//W3C//DTD SVG 20010904//EN"
 "http://www.w3.org/TR/2001/REC-SVG-20010904/DTD/svg10.dtd">
<svg version="1.0" xmlns="http://www.w3.org/2000/svg"
 width="115.000000pt" height="36.000000pt" viewBox="0 0 115.000000 36.000000"
 preserveAspectRatio="xMidYMid meet">

<g transform="translate(0.000000,36.000000) scale(0.100000,-0.100000)"
fill="#000000" stroke="none">
<path d="M40 190 l0 -130 25 5 c14 3 36 7 50 10 34 7 45 40 45 131 0 90 -17
114 -80 114 l-40 0 0 -130z m78 8 c-3 -70 -6 -83 -20 -86 -16 -3 -18 6 -18 82
0 80 1 86 20 86 20 0 21 -5 18 -82z"/>
<path d="M180 216 c0 -82 3 -108 16 -120 21 -22 60 -20 84 4 17 17 20 33 20
120 0 93 -1 100 -20 100 -19 0 -20 -7 -20 -100 0 -93 -1 -100 -20 -100 -19 0
-20 7 -20 100 0 93 -1 100 -20 100 -19 0 -20 -7 -20 -104z"/>
<path d="M330 204 c0 -88 3 -115 13 -112 7 3 14 32 17 79 l5 74 8 -59 c11 -76
15 -86 37 -86 14 0 20 13 28 58 l9 57 2 -57 c1 -51 3 -58 21 -58 19 0 20 7 20
111 l0 110 -27 -3 c-26 -3 -29 -8 -38 -65 -10 -62 -25 -95 -25 -55 0 11 -5 44
-11 72 -9 43 -14 50 -35 50 -24 0 -24 0 -24 -116z"/>
<path d="M520 210 l0 -110 41 0 c60 0 79 14 79 58 0 21 -4 42 -10 48 -6 6 -6
21 3 43 11 30 10 34 -12 52 -14 11 -39 19 -62 19 l-39 0 0 -110z m75 50 c0
-16 -6 -26 -17 -28 -14 -3 -18 3 -18 28 0 25 4 31 18 28 11 -2 17 -12 17 -28z
m3 -92 c-2 -22 -9 -34 -20 -36 -15 -3 -18 4 -18 32 0 30 4 36 21 36 17 0 20
-5 17 -32z"/>
<path d="M670 210 c0 -91 3 -110 15 -110 11 0 15 12 15 45 0 41 2 45 25 45 32
0 34 27 3 32 -18 2 -23 10 -23 33 0 27 4 30 33 33 20 2 32 9 32 18 0 10 -13
14 -50 14 l-50 0 0 -110z"/>
<path d="M792 208 l3 -113 48 -3 c37 -2 47 0 47 12 0 11 -10 16 -30 16 l-30 0
0 100 c0 94 -1 100 -20 100 -20 0 -21 -5 -18 -112z"/>
<path d="M912 203 c3 -103 5 -118 21 -121 15 -3 17 8 17 117 0 115 -1 121 -20
121 -20 0 -21 -5 -18 -117z"/>
<path d="M992 265 l21 -57 -20 -64 c-20 -62 -21 -64 -2 -64 13 0 22 12 30 40
7 22 15 40 19 40 3 0 11 -20 18 -44 9 -36 36 -66 48 -53 2 1 -6 33 -17 71
l-20 67 20 60 c19 56 19 59 2 59 -12 0 -22 -13 -30 -41 -14 -45 -20 -44 -37 4
-7 21 -18 33 -32 35 l-22 3 22 -56z"/>
</g>
</svg>
